<?xml version="1.0" encoding="UTF-8" standalone="no"?>
<!-- Created with Inkscape (http://www.inkscape.org/) -->

<svg
   xmlns:dc="http://purl.org/dc/elements/1.1/"
   xmlns:cc="http://creativecommons.org/ns#"
   xmlns:rdf="http://www.w3.org/1999/02/22-rdf-syntax-ns#"
   xmlns:svg="http://www.w3.org/2000/svg"
   xmlns="http://www.w3.org/2000/svg"
   xmlns:sodipodi="http://sodipodi.sourceforge.net/DTD/sodipodi-0.dtd"
   xmlns:inkscape="http://www.inkscape.org/namespaces/inkscape"
   id="svg4190"
   version="1.1"
   inkscape:version="0.91 r13725"
   width="240"
   height="240"
   viewBox="0 0 240 240"
   sodipodi:docname="menu_white_192x192.svg">
  <metadata
     id="metadata4196">
    <rdf:RDF>
      <cc:Work
         rdf:about="">
        <dc:format>image/svg+xml</dc:format>
        <dc:type
           rdf:resource="http://purl.org/dc/dcmitype/StillImage" />
        <dc:title></dc:title>
      </cc:Work>
    </rdf:RDF>
  </metadata>
  <defs
     id="defs4194" />
  <sodipodi:namedview
     pagecolor="#ffffff"
     bordercolor="#666666"
     borderopacity="1"
     objecttolerance="10"
     gridtolerance="10"
     guidetolerance="10"
     inkscape:pageopacity="0"
     inkscape:pageshadow="2"
     inkscape:window-width="1920"
     inkscape:window-height="977"
     id="namedview4192"
     showgrid="false"
     inkscape:zoom="3.2791667"
     inkscape:cx="109.77434"
     inkscape:cy="132.19822"
     inkscape:window-x="0"
     inkscape:window-y="0"
     inkscape:window-maximized="1"
     inkscape:current-layer="svg4190" />
  <path
     style="fill:#ffffff"
     d="m 30.763206,178.1052 c -0.359322,-0.93637 -0.483733,-5.2995 -0.27647,-9.69583 l 0.376841,-7.99334 89.375003,0 89.375,0 0,9.375 0,9.375 -89.09853,0.32084 c -74.251853,0.26737 -89.207398,0.0371 -89.751844,-1.38167 z m 0,-50 c -0.359322,-0.93637 -0.483733,-5.29949 -0.27647,-9.69583 l 0.376841,-7.99334 89.375003,0 89.375,0 0,9.375 0,9.375 -89.09853,0.32084 c -74.251853,0.26737 -89.207398,0.0371 -89.751844,-1.38167 z m 0,-49.999999 C 30.403884,77.168827 30.279473,72.8057 30.486736,68.409362 l 0.376841,-7.993341 89.375003,0 89.375,0 0,9.375 0,9.375 -89.09853,0.320839 C 46.263197,79.754237 31.307652,79.52401 30.763206,78.105201 Z"
     id="path4200"
     inkscape:connector-curvature="0" />
</svg>
